<mxfile host="app.diagrams.net" agent="Mozilla/5.0 (Windows NT 10.0; Win64; x64) AppleWebKit/537.36 (KHTML, like Gecko) Chrome/133.0.0.0 Safari/537.36" version="26.0.16">
  <diagram name="第 1 页" id="kPwiS559JR8RlmYAUY7x">
    <mxGraphModel dx="3216" dy="3009" grid="1" gridSize="10" guides="1" tooltips="1" connect="0" arrows="0" fold="1" page="1" pageScale="1" pageWidth="827" pageHeight="1169" math="0" shadow="0">
      <root>
        <mxCell id="0" />
        <mxCell id="1" style="locked=1;" parent="0" />
        <mxCell id="fX2XtAaq0Kl60UhtKoIl-1" value="" style="rounded=0;whiteSpace=wrap;html=1;movable=0;resizable=0;rotatable=0;deletable=0;editable=0;locked=1;connectable=0;" parent="1" vertex="1">
          <mxGeometry x="60" y="-331" width="1100" height="1500" as="geometry" />
        </mxCell>
        <mxCell id="fX2XtAaq0Kl60UhtKoIl-26" value="" style="verticalLabelPosition=bottom;verticalAlign=top;html=1;shape=mxgraph.basic.rect;fillColor2=none;strokeWidth=3;size=20;indent=5;" parent="1" vertex="1">
          <mxGeometry x="750" y="10" width="300" height="270" as="geometry" />
        </mxCell>
        <mxCell id="wL6pnTHk1i57gDkmmKRD-1" value="" style="verticalLabelPosition=bottom;verticalAlign=top;html=1;shape=mxgraph.basic.rect;fillColor2=none;strokeWidth=3;size=20;indent=5;" parent="1" vertex="1">
          <mxGeometry x="150" y="280" width="360" height="420" as="geometry" />
        </mxCell>
        <mxCell id="wL6pnTHk1i57gDkmmKRD-3" value="" style="verticalLabelPosition=bottom;verticalAlign=top;html=1;shape=mxgraph.basic.rect;fillColor2=none;strokeWidth=3;size=20;indent=5;" parent="1" vertex="1">
          <mxGeometry x="750" y="400" width="300" height="300" as="geometry" />
        </mxCell>
        <mxCell id="wL6pnTHk1i57gDkmmKRD-4" value="" style="verticalLabelPosition=bottom;verticalAlign=top;html=1;shape=mxgraph.basic.rect;fillColor2=none;strokeWidth=3;size=20;indent=5;" parent="1" vertex="1">
          <mxGeometry x="150" y="110" width="200" height="170" as="geometry" />
        </mxCell>
        <mxCell id="wL6pnTHk1i57gDkmmKRD-5" value="" style="verticalLabelPosition=bottom;verticalAlign=top;html=1;shape=mxgraph.basic.rect;fillColor2=none;strokeWidth=3;size=20;indent=5;" parent="1" vertex="1">
          <mxGeometry x="150" y="-280" width="360" height="390" as="geometry" />
        </mxCell>
        <mxCell id="wL6pnTHk1i57gDkmmKRD-7" value="" style="verticalLabelPosition=bottom;verticalAlign=top;html=1;shape=mxgraph.basic.rect;fillColor2=none;strokeWidth=3;size=20;indent=5;" parent="1" vertex="1">
          <mxGeometry x="510" y="-280" width="540" height="280" as="geometry" />
        </mxCell>
        <mxCell id="fX2XtAaq0Kl60UhtKoIl-2" value="" style="verticalLabelPosition=bottom;verticalAlign=top;html=1;shape=mxgraph.basic.rect;fillColor2=none;strokeWidth=3;size=20;indent=5;" parent="1" vertex="1">
          <mxGeometry x="750" y="700" width="300" height="300" as="geometry" />
        </mxCell>
        <mxCell id="fX2XtAaq0Kl60UhtKoIl-25" value="" style="group" parent="1" vertex="1" connectable="0">
          <mxGeometry x="750" width="300" height="400" as="geometry" />
        </mxCell>
        <mxCell id="fX2XtAaq0Kl60UhtKoIl-4" value="" style="rounded=0;whiteSpace=wrap;html=1;rotation=0;movable=1;resizable=1;rotatable=1;deletable=1;editable=1;locked=0;connectable=1;" parent="fX2XtAaq0Kl60UhtKoIl-25" vertex="1">
          <mxGeometry x="180" y="280" width="120" height="120" as="geometry" />
        </mxCell>
        <mxCell id="fX2XtAaq0Kl60UhtKoIl-5" value="" style="rounded=0;whiteSpace=wrap;html=1;rotation=0;movable=1;resizable=1;rotatable=1;deletable=1;editable=1;locked=0;connectable=1;" parent="fX2XtAaq0Kl60UhtKoIl-25" vertex="1">
          <mxGeometry x="180" width="120" height="120" as="geometry" />
        </mxCell>
        <mxCell id="fX2XtAaq0Kl60UhtKoIl-20" value="" style="verticalLabelPosition=bottom;html=1;verticalAlign=top;align=center;shape=mxgraph.floorplan.stairs;" parent="fX2XtAaq0Kl60UhtKoIl-25" vertex="1">
          <mxGeometry width="180" height="120" as="geometry" />
        </mxCell>
        <mxCell id="fX2XtAaq0Kl60UhtKoIl-21" value="" style="verticalLabelPosition=bottom;html=1;verticalAlign=top;align=center;shape=mxgraph.floorplan.stairs;rotation=-180;" parent="fX2XtAaq0Kl60UhtKoIl-25" vertex="1">
          <mxGeometry y="280" width="180" height="120" as="geometry" />
        </mxCell>
        <mxCell id="fX2XtAaq0Kl60UhtKoIl-22" value="" style="verticalLabelPosition=bottom;html=1;verticalAlign=top;align=center;shape=mxgraph.floorplan.stairs;rotation=90;" parent="fX2XtAaq0Kl60UhtKoIl-25" vertex="1">
          <mxGeometry x="162" y="140" width="156" height="120" as="geometry" />
        </mxCell>
        <mxCell id="fX2XtAaq0Kl60UhtKoIl-29" value="" style="verticalLabelPosition=bottom;verticalAlign=top;html=1;shape=mxgraph.basic.rect;fillColor2=none;strokeWidth=3;size=20;indent=5;" parent="1" vertex="1">
          <mxGeometry x="650" y="400" width="100" height="600" as="geometry" />
        </mxCell>
        <mxCell id="fX2XtAaq0Kl60UhtKoIl-34" value="基建" parent="0" />
        <mxCell id="fX2XtAaq0Kl60UhtKoIl-35" value="" style="verticalLabelPosition=bottom;html=1;verticalAlign=top;align=center;shape=mxgraph.floorplan.wallCorner;fillColor=strokeColor;direction=west;strokeWidth=3;" parent="fX2XtAaq0Kl60UhtKoIl-34" vertex="1">
          <mxGeometry x="960" y="910" width="100" height="100" as="geometry" />
        </mxCell>
        <mxCell id="H0WcmgIpEa1BF4PfxlpS-1" value="kitchen" parent="0" visible="0" />
        <mxCell id="H0WcmgIpEa1BF4PfxlpS-2" value="" style="rounded=0;whiteSpace=wrap;html=1;movable=1;resizable=1;rotatable=1;deletable=1;editable=1;locked=0;connectable=1;" vertex="1" parent="H0WcmgIpEa1BF4PfxlpS-1">
          <mxGeometry x="400.04" y="170" width="300" height="360" as="geometry" />
        </mxCell>
        <mxCell id="H0WcmgIpEa1BF4PfxlpS-9" value="" style="endArrow=none;html=1;rounded=0;entryX=1;entryY=0;entryDx=0;entryDy=0;" edge="1" parent="H0WcmgIpEa1BF4PfxlpS-1">
          <mxGeometry width="50" height="50" relative="1" as="geometry">
            <mxPoint x="699.0399999999998" y="469" as="sourcePoint" />
            <mxPoint x="699.04" y="460" as="targetPoint" />
          </mxGeometry>
        </mxCell>
        <mxCell id="H0WcmgIpEa1BF4PfxlpS-10" value="" style="endArrow=none;html=1;rounded=0;exitX=1;exitY=0;exitDx=0;exitDy=0;" edge="1" parent="H0WcmgIpEa1BF4PfxlpS-1" source="H0WcmgIpEa1BF4PfxlpS-21">
          <mxGeometry width="50" height="50" relative="1" as="geometry">
            <mxPoint x="399.67" y="419" as="sourcePoint" />
            <mxPoint x="699.0399999999998" y="349.3431125827815" as="targetPoint" />
            <Array as="points" />
          </mxGeometry>
        </mxCell>
        <mxCell id="H0WcmgIpEa1BF4PfxlpS-19" value="" style="group" vertex="1" connectable="0" parent="H0WcmgIpEa1BF4PfxlpS-1">
          <mxGeometry x="489.5" y="195" width="179" height="90" as="geometry" />
        </mxCell>
        <mxCell id="H0WcmgIpEa1BF4PfxlpS-12" value="" style="verticalLabelPosition=bottom;html=1;verticalAlign=top;align=center;shape=mxgraph.floorplan.chair;shadow=0;" vertex="1" parent="H0WcmgIpEa1BF4PfxlpS-19">
          <mxGeometry x="44.75" width="35.8" height="33.42857142857143" as="geometry" />
        </mxCell>
        <mxCell id="H0WcmgIpEa1BF4PfxlpS-13" value="" style="verticalLabelPosition=bottom;html=1;verticalAlign=top;align=center;shape=mxgraph.floorplan.chair;shadow=0;direction=west;" vertex="1" parent="H0WcmgIpEa1BF4PfxlpS-19">
          <mxGeometry x="44.75" y="56.57142857142858" width="35.8" height="33.42857142857143" as="geometry" />
        </mxCell>
        <mxCell id="H0WcmgIpEa1BF4PfxlpS-14" value="" style="verticalLabelPosition=bottom;html=1;verticalAlign=top;align=center;shape=mxgraph.floorplan.chair;shadow=0;direction=north;" vertex="1" parent="H0WcmgIpEa1BF4PfxlpS-19">
          <mxGeometry y="32.142857142857146" width="46.53999999999999" height="25.714285714285715" as="geometry" />
        </mxCell>
        <mxCell id="H0WcmgIpEa1BF4PfxlpS-15" value="" style="verticalLabelPosition=bottom;html=1;verticalAlign=top;align=center;shape=mxgraph.floorplan.chair;shadow=0;direction=south" vertex="1" parent="H0WcmgIpEa1BF4PfxlpS-19">
          <mxGeometry x="132.46" y="32.142857142857146" width="46.53999999999999" height="25.714285714285715" as="geometry" />
        </mxCell>
        <mxCell id="H0WcmgIpEa1BF4PfxlpS-16" value="" style="verticalLabelPosition=bottom;html=1;verticalAlign=top;align=center;shape=mxgraph.floorplan.chair;shadow=0;" vertex="1" parent="H0WcmgIpEa1BF4PfxlpS-19">
          <mxGeometry x="98.45" width="35.8" height="33.42857142857143" as="geometry" />
        </mxCell>
        <mxCell id="H0WcmgIpEa1BF4PfxlpS-17" value="" style="verticalLabelPosition=bottom;html=1;verticalAlign=top;align=center;shape=mxgraph.floorplan.chair;shadow=0;direction=west;" vertex="1" parent="H0WcmgIpEa1BF4PfxlpS-19">
          <mxGeometry x="98.45" y="56.57142857142858" width="35.8" height="33.42857142857143" as="geometry" />
        </mxCell>
        <mxCell id="H0WcmgIpEa1BF4PfxlpS-18" value="餐桌" style="shape=rect;shadow=0;html=1;" vertex="1" parent="H0WcmgIpEa1BF4PfxlpS-19">
          <mxGeometry x="17.9" y="12.857142857142858" width="143.2" height="64.28571428571429" as="geometry" />
        </mxCell>
        <mxCell id="H0WcmgIpEa1BF4PfxlpS-21" value="洗菜台" style="rounded=0;whiteSpace=wrap;html=1;rotation=90;" vertex="1" parent="H0WcmgIpEa1BF4PfxlpS-1">
          <mxGeometry x="643.85" y="374.82" width="80.67" height="30.33" as="geometry" />
        </mxCell>
        <mxCell id="H0WcmgIpEa1BF4PfxlpS-25" value="" style="rounded=0;whiteSpace=wrap;html=1;shape=umlActor;verticalLabelPosition=bottom;verticalAlign=top;outlineConnect=0;" vertex="1" parent="H0WcmgIpEa1BF4PfxlpS-1">
          <mxGeometry x="500" y="479" width="30" height="30" as="geometry" />
        </mxCell>
        <mxCell id="H0WcmgIpEa1BF4PfxlpS-30" value="" style="verticalLabelPosition=bottom;html=1;verticalAlign=top;align=center;shape=mxgraph.floorplan.window;" vertex="1" parent="H0WcmgIpEa1BF4PfxlpS-1">
          <mxGeometry x="503.55" y="530" width="100" height="10" as="geometry" />
        </mxCell>
        <mxCell id="H0WcmgIpEa1BF4PfxlpS-34" value="2500" style="shape=dimension;direction=north;whiteSpace=wrap;html=1;align=center;points=[];verticalAlign=bottom;labelBackgroundColor=none;horizontal=0;spacingBottom=3;fontSize=14;" vertex="1" parent="H0WcmgIpEa1BF4PfxlpS-1">
          <mxGeometry x="730" y="170" width="13" height="140" as="geometry" />
        </mxCell>
        <mxCell id="H0WcmgIpEa1BF4PfxlpS-35" value="2400" style="shape=dimension;direction=north;whiteSpace=wrap;html=1;align=center;points=[];verticalAlign=bottom;labelBackgroundColor=none;horizontal=0;spacingBottom=3;fontSize=14;" vertex="1" parent="H0WcmgIpEa1BF4PfxlpS-1">
          <mxGeometry x="730" y="310" width="13" height="160" as="geometry" />
        </mxCell>
        <mxCell id="H0WcmgIpEa1BF4PfxlpS-37" value="" style="verticalLabelPosition=bottom;html=1;verticalAlign=top;align=center;shape=mxgraph.floorplan.window;rotation=90;" vertex="1" parent="H0WcmgIpEa1BF4PfxlpS-1">
          <mxGeometry x="668.5" y="386.5" width="73" height="6" as="geometry" />
        </mxCell>
        <mxCell id="H0WcmgIpEa1BF4PfxlpS-38" value="" style="verticalLabelPosition=bottom;html=1;verticalAlign=top;align=center;shape=mxgraph.floorplan.window;rotation=90;" vertex="1" parent="H0WcmgIpEa1BF4PfxlpS-1">
          <mxGeometry x="661" y="232" width="88" height="6" as="geometry" />
        </mxCell>
        <mxCell id="H0WcmgIpEa1BF4PfxlpS-39" value="1000" style="shape=dimension;direction=north;whiteSpace=wrap;html=1;align=center;points=[];verticalAlign=bottom;labelBackgroundColor=none;horizontal=0;spacingBottom=3;fontSize=14;" vertex="1" parent="H0WcmgIpEa1BF4PfxlpS-1">
          <mxGeometry x="730" y="470" width="13" height="60" as="geometry" />
        </mxCell>
        <mxCell id="H0WcmgIpEa1BF4PfxlpS-40" value="柴火灶" style="rounded=0;whiteSpace=wrap;html=1;rotation=0;" vertex="1" parent="H0WcmgIpEa1BF4PfxlpS-1">
          <mxGeometry x="469" y="420" width="120" height="50" as="geometry" />
        </mxCell>
        <mxCell id="H0WcmgIpEa1BF4PfxlpS-42" value="4000" style="shape=dimension;direction=north;whiteSpace=wrap;html=1;align=center;points=[];verticalAlign=bottom;labelBackgroundColor=none;horizontal=0;spacingBottom=3;fontSize=14;rotation=90;" vertex="1" parent="H0WcmgIpEa1BF4PfxlpS-1">
          <mxGeometry x="547.05" y="410" width="13" height="302.5" as="geometry" />
        </mxCell>
        <mxCell id="H0WcmgIpEa1BF4PfxlpS-43" value="" style="verticalLabelPosition=bottom;html=1;verticalAlign=top;align=center;shape=mxgraph.floorplan.window;rotation=90;" vertex="1" parent="H0WcmgIpEa1BF4PfxlpS-1">
          <mxGeometry x="364" y="420" width="60" height="6" as="geometry" />
        </mxCell>
        <mxCell id="H0WcmgIpEa1BF4PfxlpS-46" value="3000" style="shape=dimension;direction=north;whiteSpace=wrap;html=1;align=center;points=[];verticalAlign=bottom;labelBackgroundColor=none;horizontal=0;spacingBottom=3;fontSize=14;rotation=90;" vertex="1" parent="H0WcmgIpEa1BF4PfxlpS-1">
          <mxGeometry x="576.36" y="37" width="13" height="233.5" as="geometry" />
        </mxCell>
        <mxCell id="H0WcmgIpEa1BF4PfxlpS-48" value="5900" style="shape=dimension;direction=north;whiteSpace=wrap;html=1;align=center;points=[];verticalAlign=bottom;labelBackgroundColor=none;horizontal=0;spacingBottom=3;fontSize=14;" vertex="1" parent="H0WcmgIpEa1BF4PfxlpS-1">
          <mxGeometry x="360" y="170" width="13" height="360" as="geometry" />
        </mxCell>
        <mxCell id="H0WcmgIpEa1BF4PfxlpS-50" value="燃气灶" style="rounded=0;whiteSpace=wrap;html=1;rotation=0;" vertex="1" parent="H0WcmgIpEa1BF4PfxlpS-1">
          <mxGeometry x="590" y="430" width="110.36" height="40" as="geometry" />
        </mxCell>
        <mxCell id="H0WcmgIpEa1BF4PfxlpS-52" value="" style="verticalLabelPosition=bottom;html=1;verticalAlign=top;align=center;shape=mxgraph.floorplan.doorRight;aspect=fixed;rotation=-180;" vertex="1" parent="H0WcmgIpEa1BF4PfxlpS-1">
          <mxGeometry x="406.04" y="492.5" width="40" height="42.5" as="geometry" />
        </mxCell>
        <mxCell id="H0WcmgIpEa1BF4PfxlpS-53" value="吧台" style="rounded=0;whiteSpace=wrap;html=1;rotation=0;" vertex="1" parent="H0WcmgIpEa1BF4PfxlpS-1">
          <mxGeometry x="470" y="320" width="229.36" height="30" as="geometry" />
        </mxCell>
        <mxCell id="H0WcmgIpEa1BF4PfxlpS-54" value="" style="verticalLabelPosition=bottom;html=1;verticalAlign=top;align=center;shape=mxgraph.floorplan.doorRight;aspect=fixed;rotation=-90;" vertex="1" parent="H0WcmgIpEa1BF4PfxlpS-1">
          <mxGeometry x="394" y="174" width="40" height="42.5" as="geometry" />
        </mxCell>
        <mxCell id="H0WcmgIpEa1BF4PfxlpS-55" value="" style="verticalLabelPosition=bottom;html=1;verticalAlign=top;align=center;shape=mxgraph.floorplan.window;rotation=90;" vertex="1" parent="H0WcmgIpEa1BF4PfxlpS-1">
          <mxGeometry x="364" y="285" width="60" height="6" as="geometry" />
        </mxCell>
      </root>
    </mxGraphModel>
  </diagram>
</mxfile>
